<svg width="32" height="32" viewBox="0 0 32 32" fill="none" xmlns="http://www.w3.org/2000/svg">
<path d="M24.9733 7.21314L23.2666 8.54647L15.9999 13.9465L8.73327 8.49313L7.0266 7.1598C6.62454 6.8272 6.13374 6.61986 5.61499 6.56347C5.09624 6.50708 4.57235 6.60413 4.10821 6.84258C3.64408 7.08103 3.2601 7.45042 3.00386 7.90497C2.74761 8.35952 2.63035 8.87926 2.6666 9.3998V24.8531C2.6666 25.3341 2.85765 25.7953 3.19772 26.1354C3.53778 26.4754 3.99901 26.6665 4.47994 26.6665H8.73327V16.3731L15.9999 21.8265L23.2666 16.3731V26.6665H27.5199C28.0009 26.6665 28.4621 26.4754 28.8022 26.1354C29.1422 25.7953 29.3333 25.3341 29.3333 24.8531V9.3998C29.3583 8.88375 29.2329 8.37154 28.9723 7.92543C28.7117 7.47932 28.327 7.11853 27.8652 6.88691C27.4034 6.65529 26.8842 6.56281 26.3708 6.62073C25.8574 6.67864 25.3719 6.88445 24.9733 7.21314Z" fill="white"/>
</svg>
