<svg width="32" height="32" viewBox="0 0 32 32" fill="none" xmlns="http://www.w3.org/2000/svg">
<path d="M24.8887 2.6665C26.0675 2.6665 27.1979 3.13476 28.0314 3.96825C28.8649 4.80175 29.3332 5.93221 29.3332 7.11095V24.8887C29.3332 26.0675 28.8649 27.1979 28.0314 28.0314C27.1979 28.8649 26.0675 29.3332 24.8887 29.3332H7.11095C5.93221 29.3332 4.80175 28.8649 3.96825 28.0314C3.13476 27.1979 2.6665 26.0675 2.6665 24.8887V7.11095C2.6665 5.93221 3.13476 4.80175 3.96825 3.96825C4.80175 3.13476 5.93221 2.6665 7.11095 2.6665H24.8887ZM24.8887 5.62947H7.11095C6.71803 5.62947 6.34121 5.78555 6.06338 6.06338C5.78555 6.34121 5.62947 6.71803 5.62947 7.11095V24.8887C5.62947 25.2816 5.78555 25.6585 6.06338 25.9363C6.34121 26.2141 6.71803 26.3702 7.11095 26.3702H24.8887C25.2816 26.3702 25.6585 26.2141 25.9363 25.9363C26.2141 25.6585 26.3702 25.2816 26.3702 24.8887V7.11095C26.3702 6.71803 26.2141 6.34121 25.9363 6.06338C25.6585 5.78555 25.2816 5.62947 24.8887 5.62947ZM10.0739 13.0369C10.4368 13.0369 10.787 13.1701 11.0582 13.4113C11.3293 13.6524 11.5026 13.9847 11.545 14.345L11.5554 14.5184V21.9258C11.555 22.3034 11.4104 22.6665 11.1512 22.9411C10.892 23.2157 10.5377 23.3809 10.1607 23.4031C9.78378 23.4252 9.41261 23.3025 9.12305 23.0602C8.83349 22.8178 8.6474 22.4741 8.6028 22.0991L8.59243 21.9258V14.5184C8.59243 14.1254 8.74851 13.7486 9.02635 13.4708C9.30418 13.193 9.681 13.0369 10.0739 13.0369ZM14.5184 11.5554C14.8653 11.5553 15.2013 11.6771 15.4677 11.8993C15.7341 12.1216 15.914 12.4303 15.9761 12.7717C16.2745 12.5994 16.5827 12.4445 16.8991 12.308C17.8872 11.8858 19.3672 11.6532 20.7035 12.0724C21.4043 12.2947 22.108 12.7095 22.6295 13.4161C23.0961 14.0458 23.348 14.8117 23.3984 15.6724L23.4072 15.9998V21.9258C23.4068 22.3034 23.2622 22.6665 23.003 22.9411C22.7438 23.2157 22.3895 23.3809 22.0126 23.4031C21.6356 23.4252 21.2645 23.3025 20.9749 23.0602C20.6853 22.8178 20.4992 22.4741 20.4547 22.0991L20.4443 21.9258V15.9998C20.4443 15.5109 20.3258 15.2828 20.2487 15.1776C20.138 15.0402 19.9857 14.9425 19.8147 14.8991C19.2991 14.7361 18.5569 14.8221 18.0635 15.0324C17.3228 15.3495 16.6443 15.8472 16.1821 16.308L15.9998 16.5035V21.9258C15.9994 22.3034 15.8548 22.6665 15.5956 22.9411C15.3364 23.2157 14.9821 23.3809 14.6052 23.4031C14.2282 23.4252 13.8571 23.3025 13.5675 23.0602C13.2779 22.8178 13.0918 22.4741 13.0472 22.0991L13.0369 21.9258V13.0369C13.0369 12.644 13.193 12.2671 13.4708 11.9893C13.7486 11.7115 14.1254 11.5554 14.5184 11.5554ZM10.0739 8.59243C10.4668 8.59243 10.8436 8.74851 11.1215 9.02635C11.3993 9.30418 11.5554 9.681 11.5554 10.0739C11.5554 10.4668 11.3993 10.8436 11.1215 11.1215C10.8436 11.3993 10.4668 11.5554 10.0739 11.5554C9.681 11.5554 9.30418 11.3993 9.02635 11.1215C8.74851 10.8436 8.59243 10.4668 8.59243 10.0739C8.59243 9.681 8.74851 9.30418 9.02635 9.02635C9.30418 8.74851 9.681 8.59243 10.0739 8.59243Z" fill="white" />
</svg>
