<svg width="32" height="32" viewBox="0 0 32 32" fill="none" xmlns="http://www.w3.org/2000/svg">
<path d="M7.84528 24.8708C7.44528 24.6041 7.10128 24.2641 6.69862 23.7828C6.48963 23.527 6.28252 23.2696 6.07728 23.0108C5.45995 22.2441 5.07062 21.8895 4.66928 21.7441C4.50042 21.6882 4.34444 21.5991 4.21054 21.4821C4.07664 21.365 3.96752 21.2223 3.8896 21.0624C3.81169 20.9025 3.76656 20.7286 3.75686 20.551C3.74717 20.3734 3.77311 20.1956 3.83316 20.0282C3.89322 19.8608 3.98616 19.707 4.10653 19.5761C4.22689 19.4451 4.37224 19.3396 4.53402 19.2656C4.69581 19.1917 4.87074 19.1509 5.04854 19.1456C5.22633 19.1403 5.40339 19.1706 5.56928 19.2348C6.57195 19.5948 7.25062 20.2148 8.16528 21.3521C8.03995 21.1961 8.61862 21.9215 8.74262 22.0708C8.99595 22.3735 9.18262 22.5575 9.32928 22.6548C9.60128 22.8375 10.1133 22.9161 10.8626 22.8415C10.8946 22.3321 10.9879 21.8375 11.1319 21.3815C7.17462 20.4135 4.93462 17.8615 4.93462 12.8535C4.93462 11.2001 5.42795 9.71214 6.34528 8.46414C6.05462 7.27214 6.09862 5.8308 6.74795 4.20814C6.82164 4.02458 6.93525 3.85972 7.08053 3.72551C7.22582 3.59129 7.39914 3.49108 7.58795 3.43214C7.69595 3.40014 7.75728 3.38547 7.86528 3.36947C8.93595 3.20414 10.4479 3.59614 12.4186 4.8308C13.5929 4.55588 14.7952 4.41807 16.0013 4.42014C17.2173 4.42014 18.4266 4.5588 19.58 4.8308C21.5493 3.5868 23.0653 3.1948 24.1426 3.36947C24.2564 3.38725 24.3533 3.40947 24.4333 3.43614C24.6184 3.49717 24.7879 3.59805 24.9298 3.73166C25.0717 3.86527 25.1826 4.02837 25.2546 4.20947C25.9039 5.8308 25.9479 7.2708 25.6573 8.4628C26.5786 9.7108 27.0679 11.1895 27.0679 12.8535C27.0679 17.8628 24.8359 20.4068 20.8786 21.3761C21.0453 21.9295 21.1319 22.5468 21.1319 23.2161C21.1319 24.1028 21.1293 24.9481 21.1226 25.8961C21.1226 26.1495 21.1199 26.4215 21.1159 26.8375C21.4154 26.9026 21.6833 27.069 21.8745 27.3085C22.0657 27.548 22.1685 27.8461 22.1657 28.1526C22.1629 28.459 22.0546 28.7552 21.859 28.9911C21.6634 29.2271 21.3926 29.3885 21.0919 29.4481C19.5719 29.7508 18.4466 28.7388 18.4466 27.4148L18.4493 26.8188L18.4559 25.8788C18.4626 24.9361 18.4666 24.0961 18.4666 23.2161C18.4666 22.2868 18.2213 21.6801 17.8986 21.4015C17.0173 20.6415 17.464 19.1961 18.6199 19.0668C22.5746 18.6228 24.4013 17.0908 24.4013 12.8535C24.4013 11.5801 23.9853 10.5281 23.184 9.64814C23.0153 9.46273 22.9023 9.23354 22.858 8.98686C22.8137 8.74018 22.8398 8.486 22.9333 8.25347C23.1546 7.70147 23.2479 6.97747 23.0599 6.10147L23.0466 6.10547C22.3919 6.2908 21.5666 6.69214 20.5693 7.3708C20.4085 7.47994 20.2257 7.5526 20.0339 7.5837C19.842 7.61479 19.6457 7.60356 19.4586 7.5508C18.3332 7.23876 17.1705 7.0822 16.0026 7.08547C14.8159 7.08547 13.6399 7.2428 12.5466 7.55214C12.3604 7.60428 12.1652 7.6153 11.9743 7.58445C11.7834 7.5536 11.6016 7.48161 11.4413 7.37347C10.4373 6.69747 9.60928 6.29747 8.94795 6.1108C8.75728 6.98147 8.85195 7.7028 9.07195 8.25347C9.16503 8.48594 9.19075 8.73993 9.14619 8.98635C9.10162 9.23277 8.98856 9.46166 8.81995 9.6468C8.02395 10.5201 7.60262 11.5908 7.60262 12.8521C7.60262 17.0815 9.43062 18.6228 13.3653 19.0655C14.5186 19.1948 14.9679 20.6348 14.092 21.3961C13.8346 21.6201 13.5186 22.3721 13.5186 23.2148V27.4148C13.5186 28.7281 12.4066 29.7148 10.9053 29.4521C10.601 29.3987 10.3247 29.2412 10.1236 29.0067C9.92248 28.7721 9.8091 28.475 9.80281 28.1661C9.79651 27.8572 9.89768 27.5557 10.089 27.3131C10.2804 27.0705 10.5501 26.9019 10.8519 26.8361V25.5161C9.63862 25.5975 8.63728 25.3988 7.84662 24.8695" fill="white"/>
</svg>
