<svg width="150" height="82" viewBox="0 0 150 82" fill="none" xmlns="http://www.w3.org/2000/svg">
<g clip-path="url(#clip0_322_505)">
<mask id="mask0_322_505" style="mask-type:luminance" maskUnits="userSpaceOnUse" x="2" y="2" width="145" height="77">
<path d="M2.57129 40.9088C2.57129 61.8482 34.8413 78.8232 74.6468 78.8232C114.452 78.8232 146.723 61.8482 146.723 40.9088C146.723 19.9696 114.452 2.99429 74.6468 2.99429C34.8413 2.99429 2.57129 19.9696 2.57129 40.9088Z" fill="white"/>
</mask>
<g mask="url(#mask0_322_505)">
<path d="M2.57129 40.9088C2.57129 61.8482 34.8413 78.8232 74.6468 78.8232C114.452 78.8232 146.723 61.8482 146.723 40.9088C146.723 19.9696 114.452 2.99429 74.6468 2.99429C34.8413 2.99429 2.57129 19.9696 2.57129 40.9088Z" fill="url(#paint0_radial_322_505)"/>
</g>
<mask id="mask1_322_505" style="mask-type:luminance" maskUnits="userSpaceOnUse" x="-1" y="-2" width="151" height="86">
<path d="M-0.431885 -1.3229L149.726 -1.3229L149.726 83.1406L-0.431885 83.1406L-0.431885 -1.3229Z" fill="white"/>
</mask>
<g mask="url(#mask1_322_505)">
<path d="M74.6468 76.0088C112.898 76.0088 143.907 60.2941 143.907 40.9092C143.907 21.5246 112.898 5.80969 74.6468 5.80969C36.396 5.80969 5.38672 21.5246 5.38672 40.9092C5.38672 60.2941 36.396 76.0088 74.6468 76.0088Z" fill="#777BB3"/>
</g>
<mask id="mask2_322_505" style="mask-type:luminance" maskUnits="userSpaceOnUse" x="-1" y="-2" width="151" height="86">
<path d="M-0.431885 -1.3229L149.726 -1.3229L149.726 83.1406L-0.431885 83.1406L-0.431885 -1.3229Z" fill="white"/>
</mask>
<g mask="url(#mask2_322_505)">
<path d="M41.731 45.2601C44.8762 45.2601 47.2243 44.6801 48.7099 43.5367C50.1797 42.4051 51.1948 40.4444 51.7269 37.7095C52.223 35.1532 52.034 33.3682 51.1654 32.405C50.2772 31.4212 48.357 30.9222 45.4581 30.9222L40.4317 30.9222L37.6452 45.2601L41.731 45.2601ZM25.2911 62.9219C25.0578 62.9219 24.8362 62.8176 24.6879 62.6372C24.5393 62.4571 24.4791 62.2198 24.5237 61.9907L31.9085 23.9949C31.9799 23.6276 32.3019 23.3622 32.6762 23.3622L48.5924 23.3622C53.5945 23.3622 57.3177 24.7204 59.6579 27.3995C62.0106 30.0927 62.7371 33.8573 61.8172 38.5886C61.4428 40.5161 60.7989 42.3063 59.9034 43.909C59.0069 45.5135 57.8221 46.9982 56.3813 48.3225C54.6565 49.9367 52.7045 51.1071 50.5846 51.7959C48.4983 52.4755 45.8189 52.8201 42.621 52.8201L36.1762 52.8201L34.3358 62.2889C34.2643 62.6565 33.9426 62.9219 33.5683 62.9219L25.2911 62.9219Z" fill="black"/>
<path d="M41.0766 31.7044L45.4582 31.7044C48.957 31.7044 50.1723 32.4721 50.5852 32.9297C51.2703 33.6893 51.3996 35.291 50.9593 37.5613C50.4645 40.1031 49.5474 41.9052 48.233 42.9172C46.8873 43.9532 44.6996 44.4782 41.7312 44.4782L38.594 44.4782L41.0766 31.7044ZM48.5925 22.5803L32.6761 22.5803C31.9274 22.5803 31.2837 23.111 31.1409 23.8459L23.7561 61.8417C23.6669 62.3003 23.7873 62.7745 24.0843 63.135C24.3815 63.4955 24.8241 63.7041 25.2913 63.7041L33.5682 63.7041C34.3171 63.7041 34.9608 63.1733 35.1036 62.4385L36.8211 53.6024L42.6211 53.6024C45.9011 53.6024 48.6624 53.2447 50.8274 52.5395C53.054 51.8161 55.1025 50.5896 56.9156 48.894C58.415 47.5145 59.6502 45.966 60.5861 44.291C61.5222 42.6156 62.1948 40.7472 62.585 38.7378C63.5535 33.7576 62.7667 29.7696 60.2469 26.8853C57.7516 24.0287 53.8303 22.5803 48.5925 22.5803ZM36.6964 46.0424L41.7312 46.0424C45.0682 46.0424 47.5539 45.4138 49.1871 44.1565C50.8206 42.899 51.9223 40.8001 52.4948 37.859C53.0425 35.0352 52.793 33.0425 51.7463 31.8817C50.6984 30.7208 48.6027 30.1403 45.4582 30.1403L39.7872 30.1403L36.6964 46.0424ZM48.5925 24.1444C53.3806 24.1444 56.8736 25.4009 59.0691 27.9142C61.2644 30.4276 61.9255 33.9357 61.0496 38.4396C60.689 40.2949 60.0793 41.9912 59.2208 43.528C58.3613 45.0658 57.2391 46.472 55.8522 47.747C54.1994 49.2937 52.3634 50.3959 50.343 51.0523C48.3227 51.7105 45.7494 52.0382 42.6211 52.0382L35.5314 52.0382L33.5682 62.14L25.2913 62.14L32.6761 24.1444L48.5925 24.1444Z" fill="white"/>
<path d="M80.7947 52.8203C80.5611 52.8203 80.3397 52.716 80.1914 52.5356C80.0426 52.3555 79.9823 52.1185 80.0269 51.8891L83.2936 35.0775C83.6044 33.4787 83.5277 32.3311 83.078 31.8462C82.8027 31.5498 81.9758 31.0527 79.5308 31.0527L73.6126 31.0527L69.5055 52.1874C69.434 52.5549 69.1121 52.8203 68.7377 52.8203L60.526 52.8203C60.2924 52.8203 60.0711 52.716 59.9225 52.5356C59.7739 52.3555 59.7137 52.1183 59.7583 51.8891L67.1431 13.8933C67.2145 13.526 67.5365 13.2606 67.9108 13.2606L76.1226 13.2606C76.3561 13.2606 76.5775 13.3649 76.7261 13.545C76.8747 13.7254 76.9349 13.9624 76.8903 14.1918L75.1082 23.3624L81.4748 23.3624C86.3249 23.3624 89.6138 24.2174 91.5293 25.9766C93.4819 27.7711 94.0911 30.6406 93.3404 34.5061L89.9045 52.1874C89.833 52.5549 89.5113 52.8203 89.1367 52.8203L80.7947 52.8203Z" fill="black"/>
<path d="M76.1234 12.4787L67.9117 12.4787C67.1627 12.4787 66.5191 13.0095 66.3762 13.7444L58.9914 51.7402C58.9023 52.1987 59.0227 52.6729 59.3199 53.0335C59.6171 53.394 60.0597 53.6025 60.5269 53.6025L68.7386 53.6025C69.4873 53.6025 70.1312 53.0718 70.2741 52.3369L74.2582 31.8349L79.5317 31.8349C81.9725 31.8349 82.4848 32.3563 82.5054 32.3787C82.6535 32.538 82.8482 33.2758 82.5268 34.9285L79.2601 51.7402C79.1709 52.1987 79.2913 52.6729 79.5885 53.0335C79.8857 53.394 80.3284 53.6025 80.7955 53.6025L89.1376 53.6025C89.8863 53.6025 90.5302 53.0718 90.6731 52.3369L94.1087 34.6556C94.915 30.5052 94.2252 27.3917 92.0594 25.4011C89.9927 23.503 86.5307 22.5804 81.4757 22.5804L76.0575 22.5804L77.6589 14.3413C77.7478 13.8828 77.6276 13.4083 77.3304 13.0481C77.0332 12.6875 76.5906 12.4787 76.1234 12.4787ZM76.1234 14.0428L74.1602 24.1446L81.4757 24.1446C86.0787 24.1446 89.2536 24.948 91.001 26.5528C92.7484 28.1587 93.2719 30.7606 92.5735 34.3574L89.1376 52.0384L80.7955 52.0384L84.0622 35.227C84.434 33.3146 84.2974 32.0101 83.6519 31.3146C83.0062 30.6191 81.6326 30.2708 79.5317 30.2708L72.9686 30.2708L68.7386 52.0384L60.5269 52.0384L67.9117 14.0428L76.1234 14.0428Z" fill="white"/>
<path d="M106.334 45.2601C109.479 45.2601 111.827 44.6801 113.313 43.5367C114.782 42.4053 115.798 40.4447 116.33 37.7095C116.826 35.1532 116.637 33.3682 115.768 32.405C114.88 31.4212 112.96 30.9222 110.061 30.9222L105.034 30.9222L102.248 45.2601L106.334 45.2601ZM89.8941 62.9219C89.6608 62.9219 89.4392 62.8176 89.2909 62.6372C89.1423 62.4571 89.0818 62.2198 89.1264 61.9907L96.5112 23.9949C96.5829 23.6276 96.9046 23.3622 97.2792 23.3622L113.195 23.3622C118.198 23.3622 121.92 24.7204 124.261 27.3995C126.614 30.0924 127.34 33.857 126.42 38.5886C126.045 40.5161 125.402 42.3063 124.506 43.909C123.61 45.5135 122.425 46.9982 120.984 48.3225C119.259 49.9367 117.307 51.1071 115.187 51.7959C113.101 52.4755 110.422 52.8201 107.224 52.8201L100.779 52.8201L98.939 62.2889C98.8674 62.6565 98.5457 62.9219 98.171 62.9219L89.8941 62.9219Z" fill="black"/>
<path d="M105.68 31.7044L110.061 31.7044C113.56 31.7044 114.776 32.4721 115.188 32.9297C115.874 33.6893 116.003 35.291 115.563 37.5611C115.068 40.1031 114.15 41.9052 112.836 42.9172C111.491 43.9532 109.303 44.4782 106.334 44.4782L103.198 44.4782L105.68 31.7044ZM113.196 22.5803L97.2796 22.5803C96.5309 22.5803 95.8873 23.111 95.7444 23.8459L88.3596 61.8417C88.2704 62.3003 88.3909 62.7745 88.6878 63.135C88.985 63.4955 89.4276 63.7041 89.8948 63.7041L98.1717 63.7041C98.9204 63.7041 99.5643 63.1733 99.7072 62.4385L101.424 53.6024L107.224 53.6024C110.504 53.6024 113.266 53.2447 115.431 52.5395C117.657 51.8161 119.706 50.5893 121.519 48.8935C123.019 47.5142 124.253 45.966 125.189 44.291C126.125 42.6156 126.798 40.7472 127.188 38.7378C128.157 33.7573 127.37 29.7693 124.85 26.885C122.355 24.0287 118.434 22.5803 113.196 22.5803ZM101.3 46.0424L106.334 46.0424C109.672 46.0424 112.157 45.4138 113.79 44.1565C115.424 42.899 116.526 40.8001 117.098 37.859C117.646 35.0352 117.397 33.0425 116.35 31.8817C115.302 30.7208 113.206 30.1403 110.061 30.1403L104.39 30.1403L101.3 46.0424ZM113.196 24.1444C117.984 24.1444 121.477 25.4009 123.672 27.9142C125.868 30.4276 126.529 33.9357 125.653 38.4396C125.292 40.2949 124.683 41.9912 123.824 43.528C122.965 45.0658 121.842 46.472 120.455 47.747C118.803 49.2937 116.967 50.3959 114.946 51.0523C112.926 51.7105 110.353 52.0382 107.224 52.0382L100.135 52.0382L98.1717 62.14L89.8948 62.14L97.2796 24.1444L113.196 24.1444Z" fill="white"/>
</g>
</g>
<defs>
<radialGradient id="paint0_radial_322_505" cx="0" cy="0" r="1" gradientUnits="userSpaceOnUse" gradientTransform="translate(45.8458 16.3238) scale(94.6455 94.6455)">
<stop stop-color="#AEB2D5"/>
<stop offset="0.3" stop-color="#AEB2D5"/>
<stop offset="0.75" stop-color="#484C89"/>
<stop offset="1" stop-color="#484C89"/>
</radialGradient>
<clipPath id="clip0_322_505">
<rect width="148.322" height="80" fill="white" transform="translate(0.983154) rotate(0.704211)"/>
</clipPath>
</defs>
</svg>
